HIERARCHY
ROOT Hips
{
 OFFSET 0.000000 0.000000 0.000000
 CHANNELS 6 Xposition Yposition Zposition Yrotation Xrotation Zrotation
 JOINT Chest
 {
  OFFSET 0.000000 14.374500 -0.011500
  CHANNELS 3 Yrotation Xrotation Zrotation
  JOINT Chest2
  {
   OFFSET 0.000000 9.203400 0.023400
   CHANNELS 3 Yrotation Xrotation Zrotation
   JOINT Chest3
   {
    OFFSET 0.000000 9.162700 0.000000
    CHANNELS 3 Yrotation Xrotation Zrotation
    JOINT Chest4
    {
     OFFSET 0.000000 9.153300 0.000000
     CHANNELS 3 Yrotation Xrotation Zrotation
     JOINT Neck
     {
      OFFSET 0.000000 13.353600 0.000000
      CHANNELS 3 Yrotation Xrotation Zrotation
      JOINT Head
      {
       OFFSET 0.000000 8.573800 0.049400
       CHANNELS 3 Yrotation Xrotation Zrotation
       End Site
       {
        OFFSET 0.000000 16.219200 0.026100
       }
      }
     }
     JOINT RightCollar
     {
      OFFSET -2.497100 8.876100 0.000000
      CHANNELS 3 Yrotation Xrotation Zrotation
      JOINT RightShoulder
      {
       OFFSET -12.289200 0.000000 0.000000
       CHANNELS 3 Yrotation Xrotation Zrotation
       JOINT RightElbow
       {
        OFFSET 0.000000 -28.194900 0.000000
        CHANNELS 3 Yrotation Xrotation Zrotation
        JOINT RightWrist
        {
         OFFSET 0.000000 -23.009700 0.007900
         CHANNELS 3 Yrotation Xrotation Zrotation
         End Site
         {
          OFFSET 0.000000 -17.151500 0.000000
         }
        }
       }
      }
     }
     JOINT LeftCollar
     {
      OFFSET 2.497100 8.876100 0.000000
      CHANNELS 3 Yrotation Xrotation Zrotation
      JOINT LeftShoulder
      {
       OFFSET 12.289200 0.000000 0.000000
       CHANNELS 3 Yrotation Xrotation Zrotation
       JOINT LeftElbow
       {
        OFFSET 0.000000 -28.194900 0.000000
        CHANNELS 3 Yrotation Xrotation Zrotation
        JOINT LeftWrist
        {
         OFFSET 0.000000 -23.009700 0.007900
         CHANNELS 3 Yrotation Xrotation Zrotation
         End Site
         {
          OFFSET 0.000000 -17.151500 0.000000
         }
        }
       }
      }
     }
    }
   }
  }
 }
 JOINT RightHip
 {
  OFFSET -11.777600 0.056700 0.005700
  CHANNELS 3 Yrotation Xrotation Zrotation
  JOINT RightKnee
  {
   OFFSET 0.000000 -39.966000 -0.004200
   CHANNELS 3 Yrotation Xrotation Zrotation
   JOINT RightAnkle
   {
    OFFSET 0.000000 -41.981900 0.027400
    CHANNELS 3 Yrotation Xrotation Zrotation
    JOINT RightToe
    {
     OFFSET 0.000000 -9.910600 16.950100
     CHANNELS 3 Yrotation Xrotation Zrotation
     End Site
     {
      OFFSET 0.000000 -1.461000 6.191600
     }
    }
   }
  }
 }
 JOINT LeftHip
 {
  OFFSET 11.777600 0.056700 0.005700
  CHANNELS 3 Yrotation Xrotation Zrotation
  JOINT LeftKnee
  {
   OFFSET 0.000000 -39.966000 -0.004200
   CHANNELS 3 Yrotation Xrotation Zrotation
   JOINT LeftAnkle
   {
    OFFSET 0.000000 -41.981900 0.027400
    CHANNELS 3 Yrotation Xrotation Zrotation
    JOINT LeftToe
    {
     OFFSET 0.000000 -9.910600 16.950100
     CHANNELS 3 Yrotation Xrotation Zrotation
     End Site
     {
      OFFSET 0.000000 -1.461000 6.191600
     }
    }
   }
  }
 }
}
MOTION
Frames: 12
Frame Time: 0.008333
0.000000 91.618700 0.000000 0.000000 -5.767877 0.000000 0.000000 11.653817 0.000000 0.000000 -5.885947 0.000000 0.000000 -0.000000 0.000000 0.000000 -0.000000 0.000000 0.000000 12.528835 0.000000 0.000000 0.711642 0.000000 0.000000 -0.000000 0.000000 0.000000 0.000000 -90.000000 0.000000 -2.309062 0.000000 0.000000 2.309062 0.000000 0.000000 -0.000000 0.000000 0.000000 -0.000000 90.000000 0.000000 -2.309062 0.000000 0.000000 2.309062 0.000000 0.000000 8.520406 0.000000 0.000000 1.905762 0.000000 -0.000000 -4.658285 0.000000 0.000000 -0.000000 0.000000 0.000000 8.520406 0.000000 0.000000 1.905762 0.000000 -0.000000 -4.658285 0.000000 0.000000 -0.000000 0.000000
-2.974922 152.687495 86.144712 173.435093 -47.310156 -2.963006 4.490825 30.360622 3.900958 0.643757 6.045310 0.608107 1.050106 9.362588 0.967252 3.130308 24.079233 2.989594 4.352038 10.324084 6.056529 3.336536 -14.792917 5.613296 6.570036 -1.203254 0.438786 10.990533 -31.724632 -18.066036 16.408974 -60.968799 -4.695330 22.855227 16.498557 3.291691 -14.934870 -6.329343 -1.375567 -9.283078 -32.790236 10.901191 -8.024538 -55.058096 -8.330214 -18.194258 1.388453 2.928642 7.373453 -30.236718 2.146886 -81.657552 86.383921 -84.413764 4.130315 -27.225293 7.797846 0.039463 -0.293158 0.016590 -3.191684 -31.639690 -2.148418 145.267441 71.500898 157.073520 -4.080788 14.752434 -8.214797 0.218666 -10.277346 -1.589314
-4.199645 145.642706 87.928559 173.599871 -47.252729 -3.149770 4.406706 30.319341 3.972912 0.639199 6.050055 0.610538 1.047538 9.358788 0.965860 3.135496 24.066293 2.981475 4.310159 10.364182 6.057243 3.297169 -14.750738 5.610917 6.559409 -1.162239 0.459185 10.962487 -31.760694 -17.972784 16.497922 -60.952216 -4.846811 22.795001 16.438760 3.288017 -14.934498 -6.320038 -1.379959 -9.247986 -32.749416 10.872196 -7.973375 -55.082003 -8.389861 -18.129088 1.261972 3.073111 7.219474 -30.323643 2.217416 -82.350535 86.390115 -85.111294 4.140346 -27.324696 7.805316 0.018667 -0.167098 0.010916 -3.354789 -31.659933 -2.076623 145.211041 71.519509 157.015392 -4.039108 14.785388 -8.173460 0.039877 0.039482 0.023313
-5.209757 139.839035 89.398758 173.716079 -47.190374 -3.283205 4.343067 30.283915 4.026567 0.641023 6.033191 0.606545 1.036770 9.365443 0.971483 3.138352 24.055668 2.975410 4.272049 10.422353 6.050909 3.263327 -14.684367 5.608563 6.550805 -1.118576 0.472259 10.925722 -31.799299 -17.880337 16.584903 -60.943627 -4.984941 22.723049 16.382030 3.278703 -14.937855 -6.278032 -1.392661 -9.213587 -32.741909 10.854865 -7.925958 -55.118630 -8.444966 -18.050878 1.137911 3.224641 7.109860 -30.413657 2.266448 -82.930830 86.393954 -85.694444 4.138420 -27.411296 7.812791 0.003269 -0.090129 0.001913 -3.476238 -31.691867 -2.027599 145.156683 71.531295 156.958576 -4.005660 14.806994 -8.150204 0.010140 0.025858 0.005929
-5.940465 135.647392 90.459987 173.766971 -47.141068 -3.349966 4.299693 30.269047 4.053341 0.654530 6.007257 0.601364 1.035337 9.361855 0.970671 3.116496 24.050717 2.975689 4.252649 10.507537 6.040270 3.235286 -14.593017 5.606579 6.558543 -1.066668 0.482369 10.879903 -31.838212 -17.792727 16.655289 -60.945968 -5.091816 22.645457 16.326278 3.263729 -14.951117 -6.184647 -1.412240 -9.163306 -32.779086 10.852209 -7.866518 -55.161953 -8.505529 -17.970794 1.015661 3.380772 7.055478 -30.483498 2.294581 -83.337343 86.397208 -86.104723 4.145076 -27.462552 7.810325 -0.000509 -0.050362 -0.000297 -3.539618 -31.722521 -2.000011 145.179900 71.540850 156.988989 -3.985759 14.811355 -8.163183 0.010061 0.018809 0.005883
-6.402302 133.000863 91.128998 173.813573 -47.109080 -3.400603 4.261522 30.248856 4.064212 0.656328 6.007503 0.601089 1.032084 9.355111 0.969153 3.118372 24.046151 2.972111 4.222045 10.608400 6.042346 3.210817 -14.480434 5.604409 6.548978 -1.018914 0.504769 10.825971 -31.876332 -17.709886 16.708982 -60.956003 -5.165674 22.562659 16.264748 3.235419 -14.966135 -6.137601 -1.417893 -9.123665 -32.767622 10.840119 -7.773358 -55.208309 -8.597021 -17.898031 0.897004 3.537685 7.001315 -30.534394 2.316099 -83.869186 86.399979 -86.644649 4.141879 -27.510701 7.805114 0.001856 -0.021557 0.001085 -3.591020 -31.742370 -1.988474 145.169832 71.548409 156.978950 -3.969397 14.828049 -8.164921 0.002991 0.006361 0.001749
-6.656457 131.545627 91.496387 173.816742 -47.090117 -3.411079 4.251057 30.235606 4.067211 0.638401 6.010279 0.601476 1.026992 9.345318 0.966738 3.123074 24.043043 2.964664 4.206486 10.728903 6.038533 3.186585 -14.352622 5.601457 6.551965 -0.965847 0.521398 10.768207 -31.915302 -17.635058 16.747604 -60.969896 -5.208074 22.471163 16.198783 3.184932 -14.970351 -6.086509 -1.429563 -9.084045 -32.756738 10.833702 -7.642683 -55.256529 -8.728193 -17.830181 0.785763 3.686352 6.988434 -30.562079 2.330372 -84.030648 86.401004 -86.809892 4.127678 -27.527088 7.804829 0.001921 -0.012000 0.001123 -3.603320 -31.756689 -1.983558 145.165305 71.551223 156.974583 -3.962559 14.834274 -8.167403 0.002556 0.001851 0.001495
-6.777349 130.853395 91.670732 173.818512 -47.081950 -3.416605 4.247694 30.228918 4.069846 0.636009 6.009668 0.602343 1.020826 9.342785 0.969044 3.101022 24.035332 2.964786 4.198290 10.863478 6.026657 3.161070 -14.216465 5.597341 6.558982 -0.907585 0.531250 10.738826 -31.954192 -17.596167 16.726247 -60.984253 -5.195461 22.374420 16.131153 3.113995 -14.969284 -6.032856 -1.448850 -9.052573 -32.775815 10.836452 -7.467370 -55.278828 -8.908232 -17.767459 0.690436 3.822448 6.980909 -30.575129 2.339167 -84.111361 86.400830 -86.893623 4.119675 -27.535566 7.805499 0.001647 -0.006421 0.000963 -3.610452 -31.761548 -1.985900 145.161249 71.552408 156.971003 -3.955312 14.830427 -8.160956 0.003900 -0.001492 0.002281
-6.827527 130.571000 91.741575 173.819954 -47.081432 -3.416524 4.237387 30.231647 4.068393 0.638900 6.007394 0.600253 1.014352 9.342267 0.971607 3.095176 24.034773 2.963910 4.176330 10.993588 6.022683 3.135580 -14.077950 5.593260 6.547798 -0.861899 0.548687 10.761062 -31.990133 -17.612854 16.605729 -60.995549 -5.106885 22.279173 16.056923 3.032232 -14.971097 -6.009821 -1.459286 -9.032586 -32.771383 10.836104 -7.263371 -55.304412 -9.120277 -17.717704 0.610565 3.947610 6.979198 -30.578049 2.339005 -84.151525 86.403096 -86.935582 4.116824 -27.541843 7.805228 0.001519 -0.003034 0.000888 -3.614797 -31.760152 -2.007775 145.134381 71.547455 156.947294 -3.942608 14.828233 -8.166984 -0.000318 0.000195 -0.000186
-6.845126 130.472957 91.766815 173.819174 -47.082433 -3.415535 4.228043 30.234252 4.067495 0.637319 6.006925 0.600014 1.013769 9.345249 0.971402 3.089203 24.036080 2.963418 4.155187 11.122984 6.019706 3.110888 -13.940352 5.590241 6.533204 -0.825620 0.566544 10.732217 -32.020184 -17.574272 16.573143 -61.017526 -5.059197 22.193567 15.979717 2.945261 -14.993631 -5.954898 -1.465603 -8.974592 -32.739146 10.845014 -7.044139 -55.400522 -9.358730 -17.687130 0.540601 4.063969 6.978704 -30.579262 2.338695 -84.132990 86.402298 -86.919796 4.121359 -27.546645 7.805147 0.000499 -0.001293 0.000292 -3.615733 -31.759570 -2.014373 145.129816 71.552132 156.947146 -3.943347 14.831169 -8.174355 0.002258 0.000213 0.001320
-6.849092 130.443734 91.776232 173.813096 -47.081261 -3.416821 4.227239 30.234863 4.074109 0.635859 6.006915 0.600072 1.016923 9.346513 0.968631 3.081661 24.046164 2.967514 4.135618 11.250572 6.016474 3.088063 -13.804835 5.586813 6.529077 -0.818202 0.568692 10.687455 -32.029612 -17.529528 16.496867 -61.050148 -4.960791 22.125845 15.909263 2.858582 -15.008587 -5.920938 -1.470785 -8.950289 -32.775318 10.853795 -6.823953 -55.413465 -9.594641 -17.669985 0.478856 4.166843 6.967702 -30.585891 2.350401 -83.939913 86.401258 -86.731715 4.124456 -27.535615 7.796885 0.002343 0.000204 0.001370 -3.616049 -31.761677 -2.009438 145.124073 71.556445 156.944507 -3.940690 14.831292 -8.183286 0.003240 0.001480 0.001894
-6.850791 130.436670 91.780112 173.815143 -47.084760 -3.417756 4.215632 30.248907 4.074708 0.639250 6.003263 0.596903 1.018389 9.345472 0.967242 3.075724 24.063493 2.973120 4.118412 11.376440 6.010187 3.068619 -13.671205 5.579577 6.521389 -0.821037 0.569592 10.592256 -32.037008 -17.461962 16.441386 -61.103816 -4.833447 22.078458 15.847596 2.775230 -15.005603 -5.933012 -1.476267 -8.923536 -32.704814 10.871450 -6.590023 -55.502636 -9.852962 -17.662059 0.423842 4.251449 6.964819 -30.583737 2.353500 -83.820915 86.391981 -86.607697 4.101158 -27.535720 7.799139 -0.002368 0.000636 -0.001385 -3.617293 -31.761286 -2.016474 145.108858 71.559720 156.932221 -3.936231 14.832840 -8.185995 0.003515 0.002876 0.002055
